<svg xmlns="http://www.w3.org/2000/svg" id="Layer_1" viewBox="0 0 144 24">
    <style>
        .st2{fill:#fff}
    </style>
    <path id="Rectangle" fill="#272727" d="M0 0h144v24H0z"/>
    <path id="Rectangle_1_" fill="#68c71e" d="M0 0h54v24H0z"/>
    <path id="DMCA" d="M17.1 11.6c0 1.4-.4 2.5-1.2 3.2S14 16 12.4 16H10V7.4h2.7c1.4 0 2.5.4 3.3 1.1s1.1 1.8 1.1 3.1zm-1.9.1c0-1.8-.8-2.8-2.4-2.8h-1v5.6h.8c1.8 0 2.6-.9 2.6-2.8zm7.3 4.3l-2.1-6.7h-.1c.1 1.4.1 2.3.1 2.7v4h-1.6V7.4h2.5l2 6.6 2.2-6.6H28V16h-1.7v-4.1-.7c0-.3 0-.9.1-2h-.1L24.2 16h-1.7zm11.4-7.2c-.7 0-1.2.3-1.6.8s-.6 1.2-.6 2.1c0 1.9.7 2.9 2.2 2.9.6 0 1.3-.2 2.2-.5v1.5c-.7.3-1.5.4-2.4.4-1.2 0-2.2-.4-2.9-1.1s-1-1.8-1-3.3c0-.9.2-1.7.5-2.3s.8-1.2 1.4-1.5 1.3-.5 2.1-.5 1.7.2 2.5.6l-.6 1.5c-.3-.2-.6-.3-1-.4s-.5-.2-.8-.2zm9.2 7.2l-.6-2h-3.1l-.6 2h-2l3-8.6H42l3 8.6h-1.9zM42 12.4c-.6-1.8-.9-2.9-1-3.1s0-.4-.1-.6c-.1.5-.5 1.7-1.1 3.7H42z" class="st2"/>
    <path id="PROTECTED" d="M72.7 10.1c0 .9-.3 1.6-.9 2.1s-1.3.8-2.4.8h-.8v3h-1.8V7.4h2.7c1 0 1.8.2 2.4.7s.8 1.1.8 2zm-4.1 1.4h.6c.6 0 1-.1 1.3-.3s.4-.5.4-1c0-.4-.1-.7-.3-.9s-.6-.4-1.1-.4h-.8v2.6zm7.6 1.2V16h-1.8V7.4h2.5c1.2 0 2 .2 2.6.6s.8 1.1.8 1.9c0 .5-.1 1-.4 1.3s-.7.7-1.2.9c1.3 1.9 2.1 3.2 2.5 3.7h-2l-2-3.3h-1zm0-1.5h.6c.6 0 1-.1 1.3-.3s.4-.5.4-.9-.1-.7-.4-.9-.7-.3-1.3-.3h-.6v2.4zm13.9.5c0 1.4-.4 2.5-1.1 3.3s-1.7 1.1-3 1.1-2.3-.4-3-1.1-1.1-1.9-1.1-3.3.4-2.5 1.1-3.3 1.7-1.1 3-1.1 2.3.4 3 1.1 1.1 1.9 1.1 3.3zm-6.3 0c0 1 .2 1.7.5 2.2s.9.7 1.6.7c1.4 0 2.2-1 2.2-2.9s-.7-2.9-2.2-2.9c-.7 0-1.3.2-1.6.7s-.5 1.2-.5 2.2zM95.1 16h-1.8V8.9H91V7.4h6.5v1.5h-2.3V16zm8.6 0h-4.9V7.4h4.9v1.5h-3.1v1.9h2.9v1.5h-2.9v2.2h3.1V16zm5.4-7.2c-.7 0-1.2.3-1.6.8s-.6 1.2-.6 2.1c0 1.9.7 2.9 2.2 2.9.6 0 1.3-.2 2.2-.5v1.5c-.7.3-1.5.4-2.4.4-1.2 0-2.2-.4-2.9-1.1s-1-1.8-1-3.3c0-.9.2-1.7.5-2.3s.8-1.2 1.4-1.5 1.3-.5 2.1-.5 1.7.2 2.5.6l-.6 1.5c-.3-.2-.6-.3-1-.4s-.5-.2-.8-.2zm7.3 7.2h-1.8V8.9h-2.3V7.4h6.5v1.5h-2.3V16zm8.6 0h-4.9V7.4h4.9v1.5h-3.1v1.9h2.9v1.5h-2.9v2.2h3.1V16zm8.9-4.4c0 1.4-.4 2.5-1.2 3.2s-2 1.1-3.5 1.1h-2.4V7.4h2.7c1.4 0 2.5.4 3.3 1.1s1.1 1.8 1.1 3.1zm-1.9.1c0-1.8-.8-2.8-2.4-2.8h-1v5.6h.8c1.8 0 2.6-.9 2.6-2.8z" class="st2"/>
</svg>
